<svg width="16" height="16" viewBox="0 0 16 16" fill="none" xmlns="http://www.w3.org/2000/svg">
  <path
    d="M8.00016 14.6667C7.82335 14.6667 7.65378 14.5964 7.52876 14.4714C7.40373 14.3464 7.3335 14.1768 7.3335 14V8.66667C7.3335 8.48986 7.40373 8.32029 7.52876 8.19526C7.65378 8.07024 7.82335 8 8.00016 8C8.17697 8 8.34654 8.07024 8.47157 8.19526C8.59659 8.32029 8.66683 8.48986 8.66683 8.66667V14C8.66683 14.1768 8.59659 14.3464 8.47157 14.4714C8.34654 14.5964 8.17697 14.6667 8.00016 14.6667Z"
    fill="#2CA9BC" />
  <path
    d="M14.6669 8.00004C14.6704 8.87599 14.4994 9.74387 14.1641 10.5531C13.8287 11.3623 13.3356 12.0967 12.7136 12.7134C12.6514 12.7751 12.5777 12.824 12.4966 12.8572C12.4156 12.8904 12.3288 12.9074 12.2412 12.9071C12.1536 12.9068 12.0669 12.8892 11.9861 12.8554C11.9053 12.8216 11.8319 12.7722 11.7702 12.71C11.7085 12.6479 11.6596 12.5742 11.6264 12.4931C11.5932 12.4121 11.5762 12.3253 11.5765 12.2377C11.5768 12.1501 11.5944 12.0634 11.6282 11.9826C11.662 11.9018 11.7114 11.8284 11.7736 11.7667C12.2706 11.2738 12.6645 10.6869 12.9323 10.0402C13.2001 9.39354 13.3365 8.7 13.3336 8.00004C13.3336 6.58555 12.7717 5.229 11.7715 4.2288C10.7713 3.22861 9.41471 2.66671 8.00022 2.66671C6.58573 2.66671 5.22918 3.22861 4.22899 4.2288C3.22879 5.229 2.66689 6.58555 2.66689 8.00004C2.66367 8.70063 2.80061 9.39479 3.06967 10.0417C3.33872 10.6885 3.73445 11.2751 4.23356 11.7667C4.29604 11.8287 4.34564 11.9024 4.37948 11.9837C4.41333 12.0649 4.43075 12.152 4.43075 12.24C4.43075 12.328 4.41333 12.4152 4.37948 12.4964C4.34564 12.5777 4.29604 12.6514 4.23356 12.7134C4.17126 12.7752 4.09738 12.824 4.01616 12.8572C3.93493 12.8904 3.84796 12.9072 3.76022 12.9067C3.58533 12.906 3.41773 12.8365 3.29356 12.7134C2.66937 12.0979 2.17445 11.3639 1.83787 10.5545C1.50129 9.74512 1.32983 8.87663 1.33356 8.00004C1.33356 6.23193 2.03593 4.53624 3.28618 3.286C4.53642 2.03575 6.23211 1.33337 8.00022 1.33337C9.76833 1.33337 11.464 2.03575 12.7143 3.286C13.9645 4.53624 14.6669 6.23193 14.6669 8.00004ZM8.00022 4.00004C7.20904 3.99942 6.43544 4.23344 5.77727 4.6725C5.1191 5.11157 4.60592 5.73596 4.30263 6.4667C3.99935 7.19745 3.91958 8.00172 4.07342 8.7778C4.22725 9.55388 4.60779 10.2669 5.16689 10.8267C5.22617 10.8969 5.29931 10.9541 5.38173 10.9946C5.46415 11.0352 5.55406 11.0583 5.64583 11.0625C5.73759 11.0667 5.82924 11.0518 5.915 11.0189C6.00077 10.986 6.07881 10.9357 6.14422 10.8712C6.20964 10.8067 6.26102 10.7294 6.29514 10.6441C6.32927 10.5588 6.34539 10.4674 6.34251 10.3756C6.33963 10.2838 6.31781 10.1936 6.27841 10.1106C6.23901 10.0276 6.18288 9.95364 6.11356 9.89337C5.8652 9.64475 5.66844 9.34949 5.53458 9.02456C5.40072 8.69964 5.3324 8.35146 5.33356 8.00004C5.33356 7.2928 5.61451 6.61452 6.1146 6.11442C6.6147 5.61433 7.29298 5.33337 8.00022 5.33337C8.70747 5.33337 9.38574 5.61433 9.88584 6.11442C10.3859 6.61452 10.6669 7.2928 10.6669 8.00004C10.668 8.35146 10.5997 8.69964 10.4659 9.02456C10.332 9.34949 10.1352 9.64475 9.88689 9.89337C9.76272 10.0183 9.69303 10.1873 9.69303 10.3634C9.69303 10.5395 9.76272 10.7085 9.88689 10.8334C10.0111 10.9565 10.1787 11.026 10.3536 11.0267C10.4418 11.0263 10.529 11.0085 10.6103 10.9741C10.6915 10.9398 10.7651 10.8897 10.8269 10.8267C11.3856 10.2673 11.766 9.55489 11.92 8.77943C12.0741 8.00397 11.9949 7.20025 11.6924 6.46978C11.39 5.73931 10.8778 5.11485 10.2207 4.67528C9.56351 4.23571 8.79084 4.00074 8.00022 4.00004ZM8.00022 7.00004C7.80244 7.00004 7.6091 7.05869 7.44465 7.16857C7.2802 7.27845 7.15203 7.43463 7.07634 7.61736C7.00065 7.80008 6.98085 8.00115 7.01944 8.19513C7.05802 8.38911 7.15326 8.5673 7.29312 8.70715C7.43297 8.847 7.61115 8.94224 7.80513 8.98083C7.99911 9.01941 8.20018 8.99961 8.38291 8.92392C8.56563 8.84823 8.72181 8.72006 8.83169 8.55561C8.94157 8.39116 9.00022 8.19782 9.00022 8.00004C9.00022 7.73482 8.89487 7.48047 8.70733 7.29293C8.51979 7.1054 8.26544 7.00004 8.00022 7.00004Z"
    fill="#2CA9BC" />
</svg>
  